<svg width="30" height="30" viewBox="0 0 30 30" fill="none" xmlns="http://www.w3.org/2000/svg">
<rect width="30" height="30" fill="#FF0000" fill-opacity="0.01"/>
<path fill-rule="evenodd" clip-rule="evenodd" d="M23 13V20L26 23V24H4V23L7 20V13C6.58819 9.05294 9.37037 5.68836 13 5V4C13.0588 2.84105 13.8999 2 15 2C16.1001 2 16.9412 2.84105 17 4V5C20.6296 5.68836 23.4118 9.05294 23 13ZM17.9701 25C17.9701 26.5213 16.9431 27.6395 14.985 27.6395C13.027 27.6395 12 26.5213 12 25H17.9701Z" fill="black"/>
<mask id="mask0_20_1536" style="mask-type:luminance" maskUnits="userSpaceOnUse" x="4" y="2" width="22" height="26">
<path fill-rule="evenodd" clip-rule="evenodd" d="M23 13V20L26 23V24H4V23L7 20V13C6.58819 9.05294 9.37037 5.68836 13 5V4C13.0588 2.84105 13.8999 2 15 2C16.1001 2 16.9412 2.84105 17 4V5C20.6296 5.68836 23.4118 9.05294 23 13ZM17.9701 25C17.9701 26.5213 16.9431 27.6395 14.985 27.6395C13.027 27.6395 12 26.5213 12 25H17.9701Z" fill="white"/>
</mask>
<g mask="url(#mask0_20_1536)">
<rect width="30" height="30" fill="#C1C0C9"/>
</g>
</svg>
