<svg width="20" height="20" viewBox="0 0 20 20" fill="none" xmlns="http://www.w3.org/2000/svg">
<g id="book-closed-fill 1" opacity="0.6">
<path id="Vector" d="M6.19026 19H15.4292C15.7432 19 16 18.7387 16 18.4027C16 18.1414 15.8288 17.9099 15.6005 17.8278C14.7016 17.4545 14.5161 16.2375 15.4008 15.3042C15.6719 15.0205 16 14.6547 16 13.9081V5.34438C16 3.79141 15.2652 3 13.7884 3H6.21166C4.73484 3 4 3.78395 4 5.34438V16.693C4 18.2309 4.74198 19 6.19026 19ZM6.25446 17.798C5.53389 17.798 5.14864 17.3948 5.14864 16.6855C5.14864 16.0135 5.60524 15.5805 6.31867 15.5805H13.6385C13.7313 15.5805 13.8169 15.573 13.8883 15.5581C13.5529 16.3346 13.61 17.1559 13.9881 17.798H6.25446ZM6.04043 14.4456C5.81927 14.4456 5.63377 14.2515 5.63377 14.0126V4.58283C5.63377 4.34391 5.81927 4.15726 6.04043 4.15726C6.2616 4.15726 6.45423 4.34391 6.45423 4.58283V14.0126C6.45423 14.2515 6.2616 14.4456 6.04043 14.4456Z" fill="#2B3032"/>
</g>
</svg>
