<svg width="34" height="34" viewBox="0 0 34 34" fill="none" xmlns="http://www.w3.org/2000/svg">
<g id="call 1">
<g id="Group">
<g id="Group_2">
<path id="Vector" d="M25.2541 23.8797L20.951 21.3127C20.8458 21.2415 20.2784 20.9169 19.388 21.5725C19.3561 21.5958 19.3269 21.6229 19.3009 21.6527C19.3009 21.6527 17.7167 23.4897 17.6843 23.5269C17.5425 23.6922 17.3608 23.69 16.6192 23.214C15.5487 22.5282 11.7779 18.7568 11.0665 17.6471C10.6155 16.9442 10.6128 16.7625 10.7547 16.6393C10.7696 16.6276 10.7696 16.6276 12.6523 15.0036C12.6826 14.9775 12.7092 14.9483 12.7331 14.9164C13.3892 14.0261 13.0651 13.4587 13.0109 13.3817L10.4258 9.05091C10.3515 8.92713 10.2303 8.83894 10.0901 8.806C9.06849 8.568 8.14199 8.72047 7.33821 9.25756C5.47512 10.5033 4.97734 13.4029 4.95715 13.5256C4.95396 13.5474 4.95131 13.5692 4.95078 13.591C4.74412 18.7069 9.98702 23.8627 10.2101 24.0794C10.2128 24.0821 10.2155 24.0848 10.2181 24.0874C10.2202 24.0901 10.2229 24.0933 10.2256 24.0959C10.4386 24.3148 15.4005 29.3617 20.4176 29.3611C20.5164 29.3611 20.6157 29.359 20.7146 29.3548C20.7363 29.3537 20.7581 29.3516 20.7794 29.3478C20.9021 29.3277 23.8022 28.8299 25.048 26.9673C25.5856 26.1625 25.7375 25.2365 25.5001 24.2149C25.4666 24.0747 25.3779 23.953 25.2541 23.8797ZM24.1656 26.3744C23.2364 27.7674 20.9249 28.2407 20.6349 28.2944C16.0151 28.4442 11.0368 23.4063 10.9868 23.3548C10.981 23.3484 10.9746 23.3426 10.9682 23.3368C10.9624 23.3304 10.956 23.3245 10.9497 23.3182C10.8987 23.2682 5.84859 18.3063 6.01009 13.6691C6.06374 13.3801 6.53071 11.075 7.9279 10.141C8.43099 9.80528 8.98881 9.69 9.63374 9.79784L12.0732 13.8821C12.0706 13.932 12.0382 14.0548 11.9096 14.2407C11.6206 14.4898 10.1257 15.7792 10.0832 15.8158C9.14659 16.6239 9.83934 17.7028 10.1963 18.2591C10.9651 19.4592 14.8464 23.3405 16.0842 24.1336C16.6027 24.4662 17.6811 25.1573 18.478 24.2335C18.4854 24.225 18.486 24.2245 20.0638 22.3954C20.2471 22.2684 20.3692 22.2355 20.4197 22.2318L24.5066 24.6713C24.6134 25.313 24.5008 25.8724 24.1656 26.3744Z" fill="#C1C0C9"/>
<path id="Vector_2" d="M25.7386 9.68628H24.0121V7.95919C24.0121 7.66541 23.7741 7.42794 23.4808 7.42794H20.7178C20.4245 7.42794 20.1865 7.66541 20.1865 7.95919V9.68628H18.46C18.1667 9.68628 17.9287 9.92375 17.9287 10.2175V12.98C17.9287 13.2738 18.1667 13.5113 18.46 13.5113H20.1865V15.232C20.1865 15.5258 20.4245 15.7633 20.7178 15.7633H23.4808C23.7741 15.7633 24.0121 15.5258 24.0121 15.232V13.5113H25.7386C26.0319 13.5113 26.2699 13.2738 26.2699 12.98V10.2175C26.2699 9.92375 26.0319 9.68628 25.7386 9.68628ZM25.2074 12.4488H23.4808C23.1876 12.4488 22.9496 12.6863 22.9496 12.98V14.7008H21.249V12.98C21.249 12.6863 21.011 12.4488 20.7178 12.4488H18.9912V10.7488H20.7178C21.011 10.7488 21.249 10.5113 21.249 10.2175V8.49044H22.9496V10.2175C22.9496 10.5113 23.1876 10.7488 23.4808 10.7488H25.2074V12.4488Z" fill="#C1C0C9"/>
<path id="Vector_3" d="M22.0991 4.63888C18.2629 4.63888 15.1423 7.75997 15.1423 11.5961C15.1423 15.4323 18.2634 18.5528 22.0991 18.5528C25.9347 18.5528 29.0558 15.4323 29.0558 11.5961C29.0558 7.75997 25.9352 4.63888 22.0991 4.63888ZM22.0991 17.4898C18.8489 17.4898 16.2048 14.8453 16.2048 11.5956C16.2048 8.34541 18.8489 5.70084 22.0991 5.70084C25.3492 5.70084 27.9933 8.34541 27.9933 11.5956C27.9933 14.8458 25.3492 17.4898 22.0991 17.4898Z" fill="#C1C0C9"/>
</g>
</g>
</g>
</svg>
