<svg width="21" height="24" viewBox="0 0 21 24" fill="none" xmlns="http://www.w3.org/2000/svg">
<path id="Shape" fill-rule="evenodd" clip-rule="evenodd" d="M11.3095 0.419091L20.0799 8.83942C20.5202 9.26383 20.6588 9.91306 20.4302 10.4803C20.2015 11.0475 19.6514 11.4191 19.0398 11.4195H18.2698V21.4999C18.2698 22.8807 17.1505 24 15.7697 24H4.76929C4.10622 24 3.47031 23.7366 3.00145 23.2677C2.53259 22.7989 2.26919 22.163 2.26919 21.4999V11.4195H1.49416C0.8835 11.4171 0.335261 11.0447 0.107898 10.478C-0.119465 9.91121 0.0194361 9.2632 0.459119 8.83942L9.22946 0.419091C9.81023 -0.139697 10.7288 -0.139697 11.3095 0.419091ZM8.26942 15.4997C8.26942 16.6043 9.16488 17.4997 10.2695 17.4997C11.3741 17.4997 12.2696 16.6043 12.2696 15.4997C12.2696 14.3951 11.3741 13.4996 10.2695 13.4996C9.16488 13.4996 8.26942 14.3951 8.26942 15.4997Z" fill="#D3D4ED"/>
</svg>
