<svg width="13" height="16" viewBox="0 0 13 16" fill="none" xmlns="http://www.w3.org/2000/svg">
<path id="Oval" fill-rule="evenodd" clip-rule="evenodd" d="M6.15154 16C6.7757 16 9.74799 12.2673 10.4809 11.0783C11.6075 9.25057 12.3031 8.16928 12.3031 6.15154C12.3031 2.75414 9.54893 0 6.15154 0C2.75414 0 0 2.75414 0 6.15154C0 8.17978 0.64451 9.25387 1.76736 11.0783C2.54997 12.3499 5.52737 16 6.15154 16ZM6.15154 9.2273C7.85023 9.2273 9.2273 7.85023 9.2273 6.15154C9.2273 4.45284 7.85023 3.07577 6.15154 3.07577C4.45284 3.07577 3.07577 4.45284 3.07577 6.15154C3.07577 7.85023 4.45284 9.2273 6.15154 9.2273Z" fill="#F52D56"/>
</svg>
