<svg width="21" height="26" viewBox="0 0 21 26" fill="none" xmlns="http://www.w3.org/2000/svg">
<path id="Path-103" opacity="0.3" fill-rule="evenodd" clip-rule="evenodd" d="M5.48669 19.5C5.48669 18.782 4.95804 18.2 4.24624 18.2C3.53443 18.2 3.00415 18.782 3.00415 19.5V20.8C3.00415 23.6719 5.14457 26 7.99179 26H16.003C18.8502 26 21 23.6719 21 20.8V5.2C21 2.32812 18.6919 0 15.8447 0H7.99179C5.14457 0 3.00415 2.32812 3.00415 5.2V6.50001C3.00415 7.21798 3.52549 7.80001 4.23729 7.80001C4.94909 7.80001 5.52613 7.21798 5.52613 6.50001V5.2C5.52613 3.76406 6.56818 2.48282 7.99179 2.48282L16.003 2.53265C17.4266 2.53265 18.5415 3.76406 18.5415 5.2V20.8C18.5415 22.2359 17.4266 23.5023 16.003 23.5023H7.99179C6.56818 23.5023 5.48669 22.2359 5.48669 20.8V19.5ZM16.3298 12.1137C16.8277 12.6235 16.8166 13.4224 16.2965 13.9192L12.214 17.8192C11.6826 18.3269 10.821 18.3269 10.2895 17.8192C9.7581 17.3116 9.7581 16.4884 10.2895 15.9808L12.6504 13.7254L1 13.7254C0.447716 13.7254 0 13.2777 0 12.7254V12.1254C0 11.5732 0.447714 11.1254 1 11.1254L11.4475 11.1254L10.2895 10.0192C9.7581 9.51156 9.7581 8.68844 10.2895 8.18076C10.821 7.67308 11.6826 7.67308 12.214 8.18076L15.2965 11.1254H15.3299C15.8783 11.1254 16.3235 11.5668 16.3298 12.1137Z" fill="black"/>
</svg>
