<svg width="19" height="19" viewBox="0 0 19 19" fill="none" xmlns="http://www.w3.org/2000/svg">
<g id="049-prayer 1" clip-path="url(#clip0_20_1543)">
<g id="Group">
<path id="Vector" d="M18.6875 0H18.14C17.2465 0 16.4515 0.430688 15.9515 1.09497H15.9501C15.0554 1.09497 14.2598 1.52639 13.7601 2.19177V2.18994C12.2505 2.18994 11.0227 3.41806 11.0227 4.92737V7.5607L9.34375 9.21644L7.66479 7.5607V4.92737C7.66479 3.41806 6.43697 2.18994 4.92737 2.18994V2.19177C4.42766 1.52639 3.63209 1.09497 2.73743 1.09497H2.73597C2.23604 0.430688 1.44098 0 0.547485 0H0V8.59994L3.87915 13.2126H3.28491V18.6875H15.4026V13.2126H14.8083L18.6875 8.59994V0ZM6.56982 4.92737V6.58661C6.23579 6.38505 5.8624 6.25747 5.47485 6.2125V3.8324C5.47485 3.67326 5.46033 3.51705 5.43434 3.36521C6.09253 3.57946 6.56982 4.19848 6.56982 4.92737ZM3.28491 2.28374C3.92218 2.50975 4.37988 3.11851 4.37988 3.8324V6.30407C4.11923 6.38042 3.87146 6.49533 3.64479 6.64498L3.28491 6.2855V2.28374ZM8.79626 17.5925H4.37988V14.3076H8.79626V17.5925ZM8.79626 13.2126H5.30988L1.09497 8.201V1.18881C1.73224 1.4147 2.18994 2.02351 2.18994 2.73743V6.73918L5.63508 10.1844L6.40959 9.41022L4.44591 7.44653C4.66417 7.34171 4.9047 7.28666 5.15406 7.28666C5.59278 7.28666 6.00522 7.45748 6.31546 7.76772L8.79626 10.2143V13.2126ZM14.3076 3.8324C14.3076 3.11851 14.7653 2.50975 15.4026 2.28374V6.2855L15.0427 6.64498C14.816 6.49533 14.5683 6.38042 14.3076 6.30407V3.8324ZM12.1177 4.92737C12.1177 4.19852 12.595 3.57946 13.2532 3.36521C13.2265 3.51952 13.2129 3.6758 13.2126 3.8324V6.2125C12.8251 6.25747 12.4517 6.38505 12.1177 6.58661V4.92737ZM14.3076 17.5925H9.89124V14.3076H14.3076V17.5925ZM17.5925 8.201L13.3776 13.2126H9.89124V10.2143L12.372 7.76772C12.6823 7.45748 13.0947 7.28666 13.5334 7.28666C13.7828 7.28666 14.0233 7.34171 14.2416 7.44653L12.2779 9.41018L13.0524 10.1844L16.4976 6.73922V2.73743C16.4976 2.02354 16.9553 1.41478 17.5925 1.18877V8.201Z" fill="#C1C0C9"/>
<path id="Vector_2" d="M12.1177 15.4026H13.2126V16.4976H12.1177V15.4026Z" fill="#C1C0C9"/>
<path id="Vector_3" d="M5.47485 15.4026H6.56982V16.4976H5.47485V15.4026Z" fill="#C1C0C9"/>
</g>
</g>
<defs>
<clipPath id="clip0_20_1543">
<rect width="18.6875" height="18.6875" fill="white"/>
</clipPath>
</defs>
</svg>
