<svg width="24" height="24" viewBox="0 0 24 24" fill="none" xmlns="http://www.w3.org/2000/svg">
<path id="Shape" fill-rule="evenodd" clip-rule="evenodd" d="M2.72612 4.44C4.92 1.74918 8.24612 0 12 0C18.6169 0 24 5.38306 24 12C24 18.6169 18.6169 24 12 24C5.38306 24 0 18.6169 0 12C0 10.7647 2.43714 10.6475 2.48938 12C2.6955 17.3788 6.61835 21.5015 12 21.5015C17.3816 21.5015 21.5234 17.3831 21.5234 12C21.5234 6.61835 17.3831 2.45123 12 2.45123C8.86306 2.45123 6.08612 3.72 4.28612 6L6.00339 7.71727C6.31837 8.03225 6.09529 8.57082 5.64983 8.57082H0.2C0.0895431 8.57082 0 8.48128 0 8.37082V2.92099C0 2.47554 0.53857 2.25245 0.853553 2.56744L2.72612 4.44ZM12.0005 7.00003C12.0005 6.45613 12.0005 6.00372 12.9979 6.00372C13.9954 6.00372 13.998 6.45193 13.998 7.00003V13.0256C13.998 14.0081 12.9903 15.0023 11.977 15.0023H8.00047C8.00047 15.0023 7.00293 14.9639 7.00293 13.9857C7.00293 13.0076 8.00047 13.0256 8.00047 13.0256H12.04L12.0005 7.00003Z" fill="black"/>
</svg>
